HIERARCHY
ROOT root
{
  OFFSET 0.000000 0.000000 0.000000
  CHANNELS 6 Xposition Yposition Zposition Zrotation Yrotation Xrotation
  JOINT lhipjoint
  {
    OFFSET 0.000000 0.000000 0.000000
    CHANNELS 3 Zrotation Yrotation Xrotation
    JOINT lfemur
    {
      OFFSET 0.102404 -0.080329 0.066655
      CHANNELS 3 Zrotation Yrotation Xrotation
      JOINT ltibia
      {
        OFFSET 0.121828 -0.334720 0.000000
        CHANNELS 3 Zrotation Yrotation Xrotation
        JOINT lfoot
        {
          OFFSET 0.142104 -0.390427 0.000000
          CHANNELS 3 Zrotation Yrotation Xrotation
          JOINT ltoes
          {
            OFFSET 0.010339 -0.028407 0.110130
            CHANNELS 3 Zrotation Yrotation Xrotation
            End Site
            {
              OFFSET 0.000000 -0.000000 0.057305
            }
          }
        }
      }
    }
  }
  JOINT rhipjoint
  {
    OFFSET 0.000000 0.000000 0.000000
    CHANNELS 3 Zrotation Yrotation Xrotation
    JOINT rfemur
    {
      OFFSET -0.081233 -0.080330 0.066655
      CHANNELS 3 Zrotation Yrotation Xrotation
      JOINT rtibia
      {
        OFFSET -0.127134 -0.349297 0.000000
        CHANNELS 3 Zrotation Yrotation Xrotation
        JOINT rfoot
        {
          OFFSET -0.139133 -0.382266 0.000000
          CHANNELS 3 Zrotation Yrotation Xrotation
          JOINT rtoes
          {
            OFFSET -0.014837 -0.040763 0.099426
            CHANNELS 3 Zrotation Yrotation Xrotation
            End Site
            {
              OFFSET -0.000000 -0.000000 0.053684
            }
          }
        }
      }
    }
  }
  JOINT lowerback
  {
    OFFSET 0.000000 0.000000 0.000000
    CHANNELS 3 Zrotation Yrotation Xrotation
    JOINT upperback
    {
      OFFSET -0.004925 0.109363 -0.016307
      CHANNELS 3 Zrotation Yrotation Xrotation
      JOINT thorax
      {
        OFFSET 0.000675 0.109981 0.003368
        CHANNELS 3 Zrotation Yrotation Xrotation
        JOINT lowerneck
        {
          OFFSET 0.002891 0.112938 0.011517
          CHANNELS 3 Zrotation Yrotation Xrotation
          JOINT upperneck
          {
            OFFSET 0.001559 0.090381 0.019281
            CHANNELS 3 Zrotation Yrotation Xrotation
            JOINT head
            {
              OFFSET -0.002701 0.094100 -0.013586
              CHANNELS 3 Zrotation Yrotation Xrotation
              End Site
              {
                OFFSET -0.001235 0.095160 -0.006750
              }
            }
          }
        }
        JOINT lclavicle
        {
          OFFSET 0.002891 0.112938 0.011517
          CHANNELS 3 Zrotation Yrotation Xrotation
          JOINT lhumerus
          {
            OFFSET 0.146536 0.100864 -0.016287
            CHANNELS 3 Zrotation Yrotation Xrotation
            JOINT lradius
            {
              OFFSET 0.292299 -0.000000 0.000000
              CHANNELS 3 Zrotation Yrotation Xrotation
              JOINT lwrist
              {
                OFFSET 0.192136 -0.000000 -0.000000
                CHANNELS 3 Zrotation Yrotation Xrotation
                End Site
                {
                  OFFSET 0.096068 -0.000000 -0.000000
                }
              }
            }
          }
        }
        JOINT rclavicle
        {
          OFFSET 0.002891 0.112938 0.011517
          CHANNELS 3 Zrotation Yrotation Xrotation
          JOINT rhumerus
          {
            OFFSET -0.162418 0.087763 -0.041252
            CHANNELS 3 Zrotation Yrotation Xrotation
            JOINT rradius
            {
              OFFSET -0.306127 -0.000000 -0.000000
              CHANNELS 3 Zrotation Yrotation Xrotation
              JOINT rwrist
              {
                OFFSET -0.193077 -0.000000 -0.000000
                CHANNELS 3 Zrotation Yrotation Xrotation
                End Site
                {
                  OFFSET -0.096539 -0.000000 -0.000000
                }
              }
            }
          }
        }
      }
    }
  }
}
MOTION
Frames: 12
Frame Time: 0.04166667
0.00000 0.53361 0.00000 13.54558 15.38889 40.43116 0.00000 -0.00000 0.00000 5.51523 22.67326 -94.12759 28.94742 17.96072 117.04780 -1.36856 -31.93069 -15.00484 3.37578 -11.27985 -33.22958 0.00000 -0.00000 0.00000 -0.77451 -40.54090 -58.28309 -32.65462 -15.61596 129.83122 -2.10050 10.76425 -26.06743 -0.02002 -0.91357 2.51103 -6.30573 -5.05080 40.37290 1.35808 -7.77779 4.75904 8.12281 -2.72368 -13.22690 2.55871 -1.09287 -19.95660 -2.21277 -1.25329 -11.47560 -1.20684 -0.37613 -0.43783 -0.00000 0.00000 0.00000 15.16775 -67.61508 -23.00016 12.64340 -20.76249 -2.32535 -0.00000 0.00000 -8.06265 -0.00000 0.00000 0.00000 99.72550 56.11276 65.72716 -14.04445 22.79822 -2.84531 0.00000 -0.00000 -27.21050
0.00000 0.53642 0.00000 14.33587 17.37751 38.18333 0.00000 -0.00000 0.00000 5.95493 19.66523 -93.55182 28.83772 18.01359 116.69255 -1.76748 -32.44312 -13.04077 2.66300 -10.12842 -29.39359 0.00000 -0.00000 0.00000 -3.94101 -45.96096 -55.87210 -32.85147 -15.45570 130.56616 -1.87316 12.77036 -24.82768 -0.08549 -1.88595 5.19059 -4.39820 -5.49990 42.11760 1.48859 -7.41286 4.96808 7.21453 -2.55324 -13.83270 2.75154 -1.45932 -20.33550 -2.65902 -1.80919 -10.73730 -1.42537 -0.68335 -0.15096 0.00000 -0.00000 0.00000 12.79553 -67.01276 -15.71941 15.47354 -24.80163 -3.42212 -0.00000 0.00000 -11.58740 0.00000 -0.00000 0.00000 97.78524 57.97985 59.64354 -12.85377 21.07258 -2.40045 0.00000 -0.00000 -23.84690
0.00000 0.54109 0.00000 14.64099 18.29252 36.39569 0.00000 -0.00000 0.00000 5.89744 17.43535 -93.23667 28.66600 18.09469 116.13847 -2.00468 -33.38391 -12.63871 2.44203 -9.73172 -28.11227 0.00000 -0.00000 0.00000 -7.13954 -49.23504 -54.97407 -33.13660 -15.21577 131.64423 -1.65476 14.71221 -23.77580 -0.05275 -1.48209 4.07636 -3.53076 -5.34290 43.76360 1.68720 -6.73107 5.01998 6.76388 -2.21760 -14.44980 2.34704 -1.74338 -20.06660 -2.70176 -2.09971 -10.67510 -1.38207 -0.81511 -0.17683 -0.00000 -0.00000 0.00000 11.60352 -65.79577 -11.22887 18.28542 -28.52108 -4.68473 -0.00000 0.00000 -16.90240 -0.00000 -0.00000 0.00000 94.86783 60.06525 54.29977 -12.04816 19.87682 -2.11864 0.00000 -0.00000 -22.01430
0.00000 0.54625 0.00000 14.59882 19.11913 34.87632 0.00000 -0.00000 0.00000 5.78603 15.01766 -93.71930 28.53849 18.15362 115.72857 -2.10222 -33.75351 -12.47076 2.46129 -9.76718 -28.22604 0.00000 -0.00000 0.00000 -10.39236 -52.79300 -54.01182 -33.37214 -15.01034 132.54760 -1.75689 18.28166 -25.29880 -0.23723 3.13458 -8.65366 -2.35297 -5.23482 45.12720 1.86408 -5.94127 5.07214 6.04505 -1.87214 -14.98090 1.75788 -2.25022 -19.99540 -2.66587 -2.65897 -10.31430 -1.30139 -1.08335 -0.07636 -0.00000 0.00000 0.00000 10.05558 -65.11100 -8.77589 20.49384 -31.23272 -5.78523 -0.00000 0.00000 -20.43060 -0.00000 0.00000 0.00000 91.66111 62.41388 47.30135 -11.18025 18.56401 -1.83289 0.00000 -0.00000 -18.76620
0.00000 0.55338 0.00000 13.79056 19.82285 33.05582 0.00000 -0.00000 0.00000 6.06243 12.97458 -94.19895 28.38445 18.22336 115.23507 -2.52850 -34.15762 -10.18621 1.47352 -7.67052 -21.71773 0.00000 -0.00000 0.00000 -11.10204 -55.55430 -54.40127 -33.45435 -14.93704 132.86579 -1.61691 19.30282 -24.79597 -0.10768 2.11589 -5.82604 -0.56092 -5.13999 47.11140 2.04668 -4.82459 4.91279 4.87635 -1.41408 -15.96370 1.56476 -2.49167 -19.32090 -3.03152 -2.95536 -10.41980 -1.39117 -1.22799 -0.22425 -0.00000 0.00000 0.00000 9.06949 -64.52957 -6.19925 22.39531 -33.42090 -6.80229 -0.00000 0.00000 -23.04830 -0.00000 0.00000 0.00000 87.16603 64.51030 38.97775 -10.44206 17.42805 -1.60481 0.00000 -0.00000 -15.83700
0.00000 0.56078 0.00000 13.40360 19.88767 32.06124 0.00000 -0.00000 0.00000 5.40031 10.44521 -95.18447 28.17733 18.31468 114.57437 -2.90623 -34.16723 -7.48639 0.42085 -4.16380 -11.53796 0.00000 -0.00000 0.00000 -10.46672 -58.35238 -57.01672 -33.49037 -14.90465 133.00568 -1.67298 20.83176 -25.63699 -0.05008 1.44414 -3.97177 0.81260 -4.95554 49.02870 2.15689 -3.78000 3.95738 3.72989 -1.04039 -16.09890 1.53314 -2.85638 -19.49640 -3.71204 -3.42743 -10.54300 -1.63627 -1.45879 -0.25946 0.00000 0.00000 0.00000 8.62649 -63.80843 -5.15591 24.06964 -35.23781 -7.74670 -0.00000 0.00000 -24.17270 0.00000 0.00000 0.00000 81.26048 67.37189 28.21636 -9.78344 16.40011 -1.41319 0.00000 -0.00000 -11.63880
0.00000 0.56852 0.00000 12.66816 19.75718 30.59711 0.00000 -0.00000 0.00000 4.99803 7.47495 -95.81789 27.98351 18.39761 113.95892 -1.63772 -31.22763 -12.47214 1.21505 -6.99227 -19.69248 0.00000 -0.00000 0.00000 -10.04685 -60.39919 -59.05310 -33.37397 -15.00872 132.55465 -1.73105 22.58188 -26.59399 -0.03649 1.23298 -3.39009 2.70211 -4.98481 50.48630 2.06903 -2.65867 4.02702 2.21974 -0.63952 -16.34600 1.20028 -3.03357 -19.70370 -4.28189 -3.59177 -10.14980 -1.78380 -1.54109 -0.10421 0.00000 0.00000 0.00000 7.54111 -63.22392 -3.82118 25.89842 -37.10823 -8.82630 -0.00000 0.00000 -25.38230 0.00000 0.00000 0.00000 71.48800 70.42610 14.67712 -8.90406 15.00740 -1.17515 0.00000 -0.00000 -8.03389
0.00000 0.57704 0.00000 11.51446 18.97441 29.28230 0.00000 -0.00000 0.00000 4.34130 5.03007 -96.68692 27.70713 18.51173 113.08584 -1.07439 -28.92737 -13.80226 0.88622 -6.00085 -16.78688 0.00000 -0.00000 0.00000 -7.70314 -60.58205 -63.16359 -33.22351 -15.14076 131.97614 -2.17157 23.00214 -29.03130 -0.28067 3.40736 -9.41502 4.60601 -4.47767 51.38580 1.95075 -0.92094 4.14178 0.35656 -0.01382 -16.35430 1.33760 -3.34221 -19.33760 -4.72373 -4.04979 -9.99508 -1.97343 -1.78590 -0.13391 0.00000 -0.00000 0.00000 5.36910 -63.76424 -1.48915 27.23033 -38.39796 -9.64184 -0.00000 0.00000 -25.71240 0.00000 -0.00000 0.00000 57.22996 72.49495 -7.20461 -7.94590 13.46513 -0.93949 0.00000 -0.00000 -1.16766
0.00000 0.58265 0.00000 10.15817 17.26067 28.79856 0.00000 -0.00000 0.00000 3.41676 3.77491 -98.29803 27.46483 18.60783 112.32462 -0.13268 -25.61196 -17.22211 0.96701 -6.26090 -17.54332 0.00000 -0.00000 0.00000 -4.55792 -59.64101 -68.91091 -33.15646 -15.19872 131.71991 -2.18854 25.06027 -29.84714 -0.62389 5.05453 -14.06415 5.28920 -2.78712 50.31880 2.37079 1.43599 4.68188 -0.66402 0.92259 -15.50150 0.74902 -3.66447 -19.79780 -5.10498 -4.35140 -8.46007 -2.04837 -1.98198 0.44681 0.00000 -0.00000 0.00000 2.92927 -64.73433 1.01051 28.10770 -39.21519 -10.19170 -0.00000 0.00000 -25.53680 0.00000 -0.00000 0.00000 37.59745 73.79174 -44.39613 -5.90384 10.10167 -0.52226 0.00000 0.00000 17.36210
0.00000 0.59035 0.00000 10.06475 15.26774 29.15413 0.00000 -0.00000 0.00000 2.00010 2.04547 -99.32726 26.83078 18.84241 110.34973 0.32881 -24.03122 -19.13246 1.21901 -7.00325 -19.72501 0.00000 -0.00000 0.00000 -1.48357 -57.52621 -75.62815 -32.99213 -15.33852 131.09590 -2.19152 26.03338 -30.23080 -0.92153 6.11604 -17.12147 4.56323 -0.86380 48.77560 2.50863 3.17868 5.12961 -1.01451 1.67671 -14.73140 0.02626 -4.03215 -20.30530 -5.27364 -4.66561 -6.26295 -2.05601 -2.21526 1.27626 0.00000 0.00000 0.00000 -0.60462 -64.99480 5.22257 29.02585 -40.04364 -10.77735 -0.00000 0.00000 -24.19280 0.00000 0.00000 0.00000 17.52605 72.85415 -78.83583 -3.98846 6.86953 -0.23948 0.00000 0.00000 31.08980
0.00000 0.60275 0.00000 9.21687 13.97700 29.22709 0.00000 -0.00000 0.00000 2.05800 0.54643 -99.19783 25.89567 19.14538 107.47714 0.41772 -23.94352 -19.64373 1.22783 -7.02762 -19.79722 0.00000 -0.00000 0.00000 2.47930 -51.11064 -79.73485 -32.38807 -15.82627 128.84749 -3.00295 23.13481 -33.08552 -1.34470 7.34166 -20.73161 4.25968 0.54366 47.19730 3.03544 4.62108 6.24077 -1.21989 2.28534 -14.59550 -0.50902 -4.20450 -22.21470 -6.26231 -4.59811 -1.81786 -2.24729 -2.39635 2.74584 0.00000 0.00000 0.00000 -6.23205 -63.77325 11.79668 30.61616 -41.41571 -11.81512 -0.00000 0.00000 -24.32900 0.00000 0.00000 0.00000 12.67841 69.77414 -86.29966 -4.14413 7.13448 -0.25846 0.00000 0.00000 31.53760
0.00000 0.62038 0.00000 8.21465 13.97125 28.96084 0.00000 -0.00000 0.00000 1.55802 -1.60355 -98.31657 24.67011 19.46886 103.77160 0.68441 -21.52601 -19.98538 0.72622 -5.44510 -15.18255 0.00000 -0.00000 0.00000 4.61285 -44.04642 -79.54497 -31.31917 -16.59789 125.02035 -3.74021 19.92320 -35.76215 -1.62680 8.04116 -22.83916 5.10251 0.73619 47.22850 3.31760 5.32640 6.37787 -1.67101 2.56105 -14.37870 -1.01608 -4.61563 -22.81180 -6.31889 -4.94070 0.01906 -2.26252 -2.64560 3.39897 0.00000 -0.00000 0.00000 -13.50403 -61.52392 17.98264 32.12979 -42.65040 -12.82867 -0.00000 0.00000 -22.39270 0.00000 -0.00000 0.00000 18.18747 66.95911 -75.95819 -6.11739 10.45780 -0.56037 0.00000 0.00000 23.14650
